<?xml version="1.0" encoding="utf-8"?>
<!-- Generator: Adobe Illustrator 20.0.0, SVG Export Plug-In . SVG Version: 6.00 Build 0)  -->
<svg version="1.1" id="Capa_1" xmlns="http://www.w3.org/2000/svg" xmlns:xlink="http://www.w3.org/1999/xlink" x="0px" y="0px"
	 viewBox="0 0 144 144" style="enable-background:new 0 0 144 144;" xml:space="preserve">
<style type="text/css">
	.st0{fill:#393E3D;}
</style>
<g>
	<rect x="12.6" y="67.5" class="st0" width="56.5" height="56.5"/>
</g>
<g>
	<rect x="74.5" y="67.5" class="st0" width="56.5" height="56.5"/>
</g>
<g>
	<path class="st0" d="M30.5,63c-2.5,0-4.9-0.5-7-1.4c-2.1-0.9-4-2.2-5.5-3.9c-1.6-1.7-2.8-3.6-3.6-5.8c-0.9-2.2-1.3-4.6-1.3-7.1
		c0-2.4,0.4-4.6,1.2-6.9c0.8-2.2,2-4.2,3.5-5.9c1.5-1.7,3.4-3.1,5.5-4.2c2.2-1.1,4.6-1.6,7.2-1.6c2.6,0,5,0.5,7.2,1.4
		c2.2,0.9,4.1,2.2,5.7,3.8c1.6,1.6,2.8,3.5,3.7,5.8c0.9,2.2,1.3,4.6,1.3,7.2c0,2.3-0.4,4.5-1.3,6.8c-0.9,2.2-2.1,4.3-3.6,6
		c-1.5,1.8-3.4,3.2-5.6,4.3C35.7,62.5,33.2,63,30.5,63z M30.9,61c2,0,3.7-0.4,5.1-1.3c1.4-0.8,2.6-2,3.5-3.4
		c0.9-1.5,1.6-3.2,2.1-5.2c0.4-2,0.7-4.1,0.7-6.4c0-2.1-0.2-4.2-0.7-6.2c-0.4-2-1.1-3.8-2.1-5.3c-1-1.5-2.2-2.8-3.8-3.7
		c-1.6-0.9-3.4-1.4-5.6-1.4c-2,0-3.8,0.4-5.2,1.3c-1.4,0.9-2.5,2.1-3.4,3.6c-0.9,1.5-1.5,3.2-1.9,5.2c-0.4,2-0.6,4-0.6,6.1
		c0,2.4,0.2,4.5,0.7,6.6c0.5,2,1.2,3.8,2.1,5.3c1,1.5,2.2,2.7,3.7,3.5C27.1,60.5,28.9,61,30.9,61z"/>
	<path class="st0" d="M80.8,62.2v-1.6c3.1,0,4.7-1.3,4.7-3.9l-0.4-24.9L73.7,62.2h-1.5L60,32.3l-0.2,23.6c0,3.1,1.7,4.7,5.4,4.7v1.6
		H52.3v-1.6c3.2,0,5-1.7,5.1-5.1l0.4-23.9v-0.5c0-0.4,0-0.7-0.1-1.1s-0.3-0.6-0.7-0.9c-0.4-0.3-0.9-0.4-1.6-0.6
		c-0.7-0.1-1.7-0.2-2.9-0.2v-1.6h11l10.8,27.1l10.3-27.1h10.9v1.6c-1.2,0-2.1,0.1-2.8,0.2c-0.7,0.2-1.2,0.4-1.5,0.7
		c-0.3,0.3-0.6,0.7-0.6,1c-0.1,0.4-0.1,0.8-0.1,1.2L91,56.3c0,2.9,1.6,4.3,4.9,4.3v1.6H80.8z"/>
	<path class="st0" d="M105.5,62.2v-1.6c3.8,0,5.7-1.6,5.7-4.9V31c0-1.3-0.9-2-2.6-2c-2.4,0-4.3,0.8-5.7,2.3
		c-1.5,1.5-2.5,3.8-3.3,6.9L98,37.8l1.4-11.4c0.8,0.1,1.6,0.2,2.3,0.3c0.7,0.1,1.4,0.1,2.1,0.1h20.6c0.7,0,1.5,0,2.3-0.1
		c0.8-0.1,1.6-0.2,2.4-0.3v11.2l-1.4,0.2c-0.4-5.7-3.3-8.6-8.5-8.6c-1.8,0-2.7,0.6-2.7,1.8v24.7c0,3.3,1.9,4.9,5.8,4.9v1.6H105.5z"
		/>
</g>
</svg>
