<?xml version="1.0" encoding="utf-8"?>
<!-- Generator: Adobe Illustrator 20.0.0, SVG Export Plug-In . SVG Version: 6.00 Build 0)  -->
<svg version="1.1" id="Capa_1" xmlns="http://www.w3.org/2000/svg" xmlns:xlink="http://www.w3.org/1999/xlink" x="0px" y="0px"
	 viewBox="0 0 310 310" style="enable-background:new 0 0 310 310;" xml:space="preserve">
<style type="text/css">
	.st0{fill:#C5E1A5;}
	.st1{fill:#8BC34A;}
	.st2{fill:#AED581;}
</style>
<g>
	<polygon class="st0" points="0,310 154.4,310 0,155.6 	"/>
	<polygon class="st1" points="154.4,155.6 0,155.6 154.4,310 	"/>
	<polygon class="st2" points="104.2,259.7 154.4,209.5 154.4,155.6 98.6,155.6 49.2,204.9 	"/>
</g>
<g>
	<polygon class="st0" points="310,310 310,155.6 155.6,310 	"/>
	<polygon class="st1" points="155.6,155.6 155.6,310 310,155.6 	"/>
	<polygon class="st2" points="259.7,205.8 209.5,155.6 155.6,155.6 155.6,211.4 204.9,260.8 	"/>
</g>
<g>
	<polygon class="st0" points="310,0 155.6,0 310,154.4 	"/>
	<polygon class="st1" points="155.6,154.4 310,154.4 155.6,0 	"/>
	<polygon class="st2" points="205.8,50.3 155.6,100.5 155.6,154.4 211.4,154.4 260.8,105.1 	"/>
</g>
<g>
	<polygon class="st0" points="0,0 0,154.4 154.4,0 	"/>
	<polygon class="st1" points="154.4,154.4 154.4,0 0,154.4 	"/>
	<polygon class="st2" points="50.3,104.2 100.5,154.4 154.4,154.4 154.4,98.6 105.1,49.2 	"/>
</g>
</svg>
