<?xml version="1.0" standalone="no"?>
<!DOCTYPE svg PUBLIC "-//W3C//DTD SVG 20010904//EN"
 "http://www.w3.org/TR/2001/REC-SVG-20010904/DTD/svg10.dtd">
<svg version="1.0" xmlns="http://www.w3.org/2000/svg"
 width="700.000000pt" height="700.000000pt" viewBox="0 0 700.000000 700.000000"
 preserveAspectRatio="xMidYMid meet">
<metadata>
Created by potrace 1.11, written by Peter Selinger 2001-2013
</metadata>
<g transform="translate(0.000000,700.000000) scale(0.100000,-0.100000)"
fill="#000000" stroke="none">
<path d="M0 5253 c0 -1132 4 -1743 10 -1733 5 8 10 10 10 5 0 -7 586 -11 1735
-12 l1735 -3 -2 1728 c-1 1206 -5 1731 -12 1741 -8 11 -8 13 2 7 6 -4 12 -2
12 3 0 8 -524 11 -1745 11 l-1745 0 0 -1747z"/>
<path d="M3513 5255 l-3 -1745 1745 2 1745 3 0 1742 0 1743 -1743 0 -1742 0
-2 -1745z"/>
<path d="M0 1743 l0 -1743 1743 0 1742 0 2 1745 3 1745 -1745 -3 -1745 -2 0
-1742z"/>
<path d="M3513 1747 l2 -1742 1743 -3 1742 -2 -2 1742 -3 1743 -1742 2 -1743
3 3 -1743z"/>
</g>
</svg>
