<?xml version="1.0" standalone="no"?>
<!DOCTYPE svg PUBLIC "-//W3C//DTD SVG 20010904//EN"
 "http://www.w3.org/TR/2001/REC-SVG-20010904/DTD/svg10.dtd">
<svg version="1.0" xmlns="http://www.w3.org/2000/svg"
 width="700.000000pt" height="700.000000pt" viewBox="0 0 700.000000 700.000000"
 preserveAspectRatio="xMidYMid meet">
<metadata>
Created by potrace 1.11, written by Peter Selinger 2001-2013
</metadata>
<g transform="translate(0.000000,700.000000) scale(0.100000,-0.100000)"
fill="#000000" stroke="none">
<path d="M1370 5718 c-144 -20 -239 -60 -365 -151 -233 -169 -369 -447 -367
-750 3 -385 224 -714 555 -828 263 -90 538 -60 754 84 74 49 179 153 231 229
56 81 126 233 147 318 26 105 31 311 10 420 -31 164 -127 339 -249 453 -183
173 -464 261 -716 225z m225 -99 c165 -38 307 -166 384 -347 74 -177 95 -476
51 -715 -24 -124 -86 -269 -148 -345 -69 -84 -188 -154 -287 -169 -236 -35
-445 63 -552 258 -28 52 -78 187 -88 240 -3 13 -7 35 -10 49 -14 71 -16 107
-17 240 0 159 4 205 33 349 6 30 15 62 19 70 5 9 16 37 25 64 23 65 87 158
143 208 111 98 280 135 447 98z"/>
<path d="M4829 5698 c0 -13 -2 -30 -4 -39 -1 -8 -6 -42 -9 -75 -4 -32 -9 -70
-11 -84 -2 -14 -7 -47 -10 -75 -6 -57 -13 -115 -24 -198 -8 -61 -7 -64 39 -77
l29 -8 31 93 c76 227 199 342 377 351 51 2 84 -1 102 -11 59 -30 56 6 57 -679
0 -653 -2 -689 -41 -750 -33 -50 -132 -92 -212 -89 -20 0 -23 -5 -23 -41 l0
-41 407 0 407 1 1 38 c0 32 -4 40 -20 41 -105 9 -156 27 -204 74 -56 55 -56
49 -56 753 l0 646 23 21 c61 52 248 34 352 -35 77 -51 129 -141 155 -269 9
-44 17 -81 19 -82 1 -1 15 1 32 6 l29 7 0 267 c0 175 -3 267 -10 268 -5 1 -13
1 -16 1 -122 -12 -245 -15 -694 -15 -488 0 -695 6 -717 19 -4 3 -8 -5 -9 -18z"/>
<path d="M2578 5700 c-16 -4 -24 -14 -26 -34 -4 -36 10 -45 68 -44 67 0 129
-20 162 -52 l28 -29 -5 -333 c-10 -687 -15 -924 -20 -957 -15 -96 -82 -171
-168 -187 -23 -4 -45 -9 -49 -10 -5 -1 -13 -2 -19 -3 -6 0 -9 -17 -7 -38 l4
-37 299 -1 c165 0 306 1 313 3 9 3 19 71 10 72 -2 1 -21 3 -43 6 -68 9 -131
33 -158 62 -57 59 -58 68 -56 495 2 650 4 797 9 797 3 0 28 -55 54 -122 27
-68 57 -141 66 -163 10 -22 62 -148 115 -280 54 -132 117 -287 141 -345 24
-58 81 -197 127 -309 75 -186 85 -205 111 -212 40 -11 52 -3 69 49 8 26 126
341 261 700 135 360 249 664 252 678 8 30 24 32 23 2 -1 -13 2 -232 6 -488 12
-678 11 -730 -7 -765 -30 -57 -95 -95 -169 -98 -39 -1 -39 -2 -39 -42 l0 -40
363 0 c199 0 364 3 368 7 3 4 3 22 1 41 -3 28 -8 32 -33 33 -44 2 -111 23
-134 42 -51 43 -65 76 -69 173 -7 134 -19 762 -20 1041 -1 235 -1 236 23 261
25 27 86 46 163 50 27 1 48 7 49 12 5 59 4 65 -11 66 -77 3 -512 0 -516 -4 -5
-5 -92 -231 -299 -777 -209 -555 -202 -538 -213 -510 -28 73 -174 438 -182
455 -5 11 -82 203 -170 428 -120 302 -166 407 -178 408 -86 4 -476 3 -494 -1z"/>
<path d="M613 2345 l0 -1374 1371 2 1371 2 2 1372 2 1371 -1373 0 -1373 0 0
-1373z"/>
<path d="M3621 2345 l0 -1374 1372 2 1372 2 0 1370 0 1370 -1372 2 -1372 2 0
-1374z"/>
</g>
</svg>
