<?xml version="1.0" encoding="utf-8"?>
<!-- Generator: Adobe Illustrator 20.0.0, SVG Export Plug-In . SVG Version: 6.00 Build 0)  -->
<svg version="1.1" id="Capa_2" xmlns="http://www.w3.org/2000/svg" xmlns:xlink="http://www.w3.org/1999/xlink" x="0px" y="0px"
	 viewBox="0 0 425.1 425.1" style="enable-background:new 0 0 425.1 425.1;" xml:space="preserve">
<style type="text/css">
	.st0{fill:none;stroke:#000000;stroke-width:0.5669;}
	.st1{fill:#FFFFFF;stroke:#000000;stroke-width:0.5669;}
</style>
<rect x="-0.1" y="-0.1" class="st0" width="425.2" height="425.2"/>
<polygon class="st1" points="84.6,424.4 -0.1,339.6 -0.1,84.6 84.6,-0.1 339.6,-0.1 424.4,84.6 424.4,339.6 339.6,424.4 "/>
<path class="st1" d="M135.3,211.8c0-7,3-10.7,6.4-11.9c1.5-0.5,3.7-1.3,5.2-0.5c3.8,1.5,7.5,2.3,11.3,3c6.8,2.3,19.5-2.2,15.8-11.3
	c-1.5-3-3-6.8-5.3-6.8c-14.3,0-27-4.5-38.3-13.5c-2.2-1.5-5.3,0-7.6-1.3c-1.5-0.1-3.1,0-4.6,0c-11,0.5-23,3.5-23,3.5
	c1.5-15.8,20.3-28.5,20.3-28.5c-21-21-14.3-44.3-14.3-44.3l0,0c0,0,24-6.7,45,14.3c0,0,12.8-18.8,28.5-20.3c0,0-3.1,12-3.5,23
	c-0.1,1.6-0.1,3.1,0,4.6c1.3,2.3-0.2,5.3,1.3,7.6c9,11.3,13.5,24,13.5,38.3c0,2.2,3.8,3.8,6.8,5.3c9,3.8,13.5-9,11.3-15.8
	c-0.8-3.8-1.5-7.5-3-11.3c-0.8-1.5,0-3.8,0.5-5.2c1.2-3.4,4.5-6,11.5-6c7,0,10.7,3,11.9,6.4c0.5,1.5,1.3,3.7,0.5,5.2
	c-1.5,3.8-2.3,7.5-3,11.3c-2.2,6.8,2.3,19.5,11.3,15.8c3-1.5,6.8-3,6.8-5.3c0-14.3,4.5-27,13.5-38.3c1.5-2.3,0-5.3,1.3-7.6
	c0.1-1.5,0-3.1,0-4.6c-0.5-11-3.5-23-3.5-23c15.8,1.5,28.5,20.3,28.5,20.3c21-21,44.3-14.3,44.3-14.3s6.7,24-14.3,45
	c0,0,18.8,12.8,20.3,28.5c0,0-12-3.1-23-3.5c-1.6-0.1-3.1-0.1-4.6,0c-2.3,1.3-5.3-0.2-7.6,1.3c-11.3,9-24,13.5-38.3,13.5
	c-2.2,0-3.8,3.8-5.3,6.8c-3.8,9,9,13.5,15.8,11.3c3.8-0.8,7.5-1.5,11.3-3c1.5-0.8,3.8,0,5.2,0.5c3.4,1.2,6,4.5,6,11.5
	c0,7-3,10.7-6.4,11.9c-1.5,0.5-3.7,1.3-5.2,0.5c-3.8-1.5-7.5-2.3-11.3-3c-6.8-2.2-19.5,2.3-15.8,11.3c1.5,3,3,6.8,5.3,6.8
	c14.3,0,27,4.5,38.3,13.5c2.3,1.5,5.3,0,7.6,1.3c1.5,0.1,3.1,0,4.6,0c11-0.5,23-3.5,23-3.5c-1.5,15.8-20.3,28.5-20.3,28.5
	c21,21,14.3,44.3,14.3,44.3l0,0c0,0-24,6.7-45-14.3c0,0-12.8,18.8-28.5,20.3c0,0,3.1-12,3.5-23c0.1-1.6,0.1-3.1,0-4.6
	c-1.3-2.3,0.2-5.3-1.3-7.6c-9-11.3-13.5-24-13.5-38.3c0-2.3-3.8-3.8-6.8-5.3c-9-3.8-13.5,9-11.3,15.8c0.8,3.8,1.5,7.5,3,11.3
	c0.8,1.5,0,3.8-0.5,5.2c-1.2,3.4-4.5,6-11.5,6c-7,0-10.7-3-11.9-6.4c-0.5-1.5-1.3-3.7-0.5-5.2c1.5-3.8,2.3-7.5,3-11.3
	c2.2-6.8-2.3-19.5-11.3-15.8c-3,1.5-6.8,3-6.8,5.3c0,14.3-4.5,27-13.5,38.3c-1.5,2.3,0,5.3-1.3,7.6c-0.1,1.5,0,3.1,0,4.6
	c0.5,11,3.5,23,3.5,23c-15.8-1.5-28.5-20.3-28.5-20.3c-21,21-44.3,14.3-44.3,14.3s-6.7-24,14.3-45c0,0-18.8-12.8-20.3-28.5
	c0,0,12,3.1,23,3.5c1.6,0.1,3.1,0.1,4.6,0c2.3-1.3,5.3,0.2,7.6-1.3c11.3-9,24-13.5,38.3-13.5c2.3,0,3.8-3.8,5.3-6.8
	c3.8-9-9-13.5-15.8-11.3c-3.8,0.8-7.5,1.5-11.3,3c-1.5,0.8-3.8,0-5.2-0.5C137.9,222.1,135.3,218.8,135.3,211.8z"/>
<path class="st1" d="M192.7,233.2c21.8-12,42,0.8,42,0.8l0.7,0.1c0,0-12.8-20.3-0.8-42v0c-21.8,12-42-0.8-42-0.8l-0.7-0.1
	C191.9,191.1,204.7,211.4,192.7,233.2z"/>
<polygon class="st1" points="-0.1,-0.1 -0.1,84.6 84.6,-0.1 "/>
<polygon class="st1" points="339.6,-0.1 424.4,84.6 424.4,-0.1 "/>
<polygon class="st0" points="424.4,339.6 424.4,425.1 339.6,424.4 "/>
<polygon class="st0" points="84.6,424.4 -0.1,424.4 -0.1,339.6 "/>
</svg>
