<?xml version="1.0" encoding="utf-8"?>
<!-- Generator: Adobe Illustrator 20.0.0, SVG Export Plug-In . SVG Version: 6.00 Build 0)  -->
<svg version="1.1" id="Diseño" xmlns="http://www.w3.org/2000/svg" xmlns:xlink="http://www.w3.org/1999/xlink" x="0px" y="0px"
	 viewBox="0 0 565.9 565.9" style="enable-background:new 0 0 565.9 565.9;" xml:space="preserve">
<style type="text/css">
	.st0{fill:#FFFFFF;stroke:#050006;}
	.st1{fill:#FFFFFF;stroke:#020202;stroke-width:0.7087;}
	.st2{fill:#FFFFFF;stroke:#020202;stroke-width:0.7087;stroke-linecap:round;stroke-linejoin:round;}
</style>
<path class="st0" d="M452.9,0H113L0,113v339.9l113,113h339.9l113-113V113L452.9,0z M356.4,271.5c5-1,10-2,15-4c2-1,5,0,7,0.7
	c4.6,1.6,8,5.9,8,15.3c0,9.3-3.9,14.2-8.5,15.8c-2,0.7-5,1.7-7,0.7c-5-2-10-3-15-4c-9-3-26,3-21,15c2,4,4,9,7,9c19,0,36,6,51,18
	c3,2,7,0,10.1,1.7c2,0.1,4.1,0.1,6.2,0c14.7-0.6,30.7-4.7,30.7-4.7c-2,21-27,38-27,38c28,28,19,59,19,59S400,441,372,413
	c0,0-17,25-38,27c0,0,4.1-16,4.7-30.7c0.1-2.1,0.1-4.2,0-6.2C337,400,339,396,337,393c-12-15-18-32-18-51c0-3-5-5-9-7
	c-12-5-18,12-15,21c1,5,2,10,4,15c1,2,0,5-0.7,7c-1.6,4.6-5.9,8-15.3,8c-9.3,0-14.2-3.9-15.8-8.5c-0.7-2-1.7-5-0.7-7c2-5,3-10,4-15
	c3-9-3-26-15-21c-4,2-9,4-9,7c0,19-6,36-18,51c-2,3,0,7-1.7,10.1c-0.1,2-0.1,4.1,0,6.2c0.6,14.7,4.7,30.7,4.7,30.7
	c-21-2-38-27-38-27c-28,28-59,19-59,19s-8.9-31.9,19.1-59.9c0,0-25-17-27-38c0,0,16,4.1,30.7,4.7c2.1,0.1,4.2,0.1,6.2,0
	c3.1-1.7,7.1,0.3,10.1-1.7c15-12,32-18,51-18c3,0,5-5,7-9c5-12-12-18-21-15c-5,1-10,2-15,4c-2,1-5,0-7-0.7c-4.6-1.6-8-5.9-8-15.3
	l0.5-0.6c0-9.3,3.4-13.7,8-15.3c2-0.7,5-1.7,7-0.7c5,2,10,3,15,4c9,3,26-3,21-15c-2-4-4-9-7-9c-19,0-36-6-51-18c-3-2-7,0-10.1-1.7
	c-2-0.1-4.1-0.1-6.2,0C143,226.9,127,231,127,231c2-21,27-38,27-38c-28-28-19-59-19-59s31.9-8.9,59.9,19.1c0,0,17-25,38-27
	c0,0-4.1,16-4.7,30.7c-0.1,2.1-0.1,4.2,0,6.2c1.7,3.1-0.3,7.1,1.7,10.1c12,15,18,32,18,51c0,3,5,5,9,7c12,5,18-12,15-21
	c-1-5-2-10-4-15c-1-2,0-5,0.7-7c1.6-4.6,5.9-8,15.3-8c9.3,0,14.2,3.9,15.8,8.5c0.7,2,1.7,5,0.7,7c-2,5-3,10-4,15c-3,9,3,26,15,21
	c4-2,9-4,9-7c0-19,6-36,18-51c2-3,0-7,1.7-10.1c0.1-2,0.1-4.1,0-6.2c-0.6-14.7-4.7-30.7-4.7-30.7c21,2,38,27,38,27
	c28-28,59-19,59-19s8.9,31.9-19.1,59.9c0,0,25,17,27,38c0,0-16-4.1-30.7-4.7c-2.1-0.1-4.2-0.1-6.2,0c-3.1,1.7-7.1-0.3-10.1,1.7
	c-15,12-32,18-51,18c-3,0-5,5-7,9C330.4,268.5,347.4,274.5,356.4,271.5z"/>
<path class="st1" d="M453.9,0"/>
<path class="st1" d="M440.4,335c0,0-16,4.1-30.7,4.7c-2.1,0.1-4.2,0.1-6.2,0c-3.1-1.7-7.1,0.3-10.1-1.7c-15-12-32-18-51-18
	c-3,0-5-5-7-9c-5-12,12-18,21-15c5,1,10,2,15,4c2,1,5,0,7-0.7c4.6-1.6,8.5-6.5,8.5-15.8c0-9.3-3.4-13.7-8-15.3c-2-0.7-5-1.7-7-0.7
	c-5,2-10,3-15,4c-9,3-26-3-21-15c2-4,4-9,7-9c19,0,36-6,51-18c3-2,7,0,10.1-1.7c2-0.1,4.1-0.1,6.2,0c14.7,0.6,30.7,4.7,30.7,4.7
	c-2-21-27-38-27-38c28-28,19.1-59.9,19.1-59.9s-31-9-59,19c0,0-17-25-38-27c0,0,4.1,16,4.7,30.7c0.1,2.1,0.1,4.2,0,6.2
	c-1.7,3.1,0.3,7.1-1.7,10.1c-12,15-18,32-18,51c0,3-5,5-9,7c-12,5-18-12-15-21c1-5,2-10,4-15c1-2,0-5-0.7-7
	c-1.6-4.6-6.5-8.5-15.8-8.5c-9.3,0-13.7,3.4-15.3,8c-0.7,2-1.7,5-0.7,7c2,5,3,10,4,15c3,9-3,26-15,21c-4-2-9-4-9-7c0-19-6-36-18-51
	c-2-3,0-7-1.7-10.1c-0.1-2-0.1-4.1,0-6.2c0.6-14.7,4.7-30.7,4.7-30.7c-21,2-38,27-38,27c-28-28-59.9-19.1-59.9-19.1s-9,31,19,59
	c0,0-25,17-27,38c0,0,16-4.1,30.7-4.7c2.1-0.1,4.2-0.1,6.2,0c3.1,1.7,7.1-0.3,10.1,1.7c15,12,32,18,51,18c3,0,5,5,7,9
	c5,12-12,18-21,15c-5-1-10-2-15-4c-2-1-5,0-7,0.7c-4.6,1.6-8,5.9-8,15.3l-0.5,0.6c0,9.3,3.4,13.7,8,15.3c2,0.7,5,1.7,7,0.7
	c5-2,10-3,15-4c9-3,26,3,21,15c-2,4-4,9-7,9c-19,0-36,6-51,18c-3,2-7,0-10.1,1.7c-2,0.1-4.1,0.1-6.2,0c-14.7-0.6-30.7-4.7-30.7-4.7
	c2,21,27,38,27,38c-28,28-19.1,59.9-19.1,59.9s31,9,59-19c0,0,17,25,38,27c0,0-4.1-16-4.7-30.7c-0.1-2.1-0.1-4.2,0-6.2
	c1.7-3.1-0.3-7.1,1.7-10.1c12-15,18-32,18-51c0-3,5-5,9-7c12-5,18,12,15,21c-1,5-2,10-4,15c-1,2,0,5,0.7,7c1.6,4.6,6.5,8.5,15.8,8.5
	c9.3,0,13.7-3.4,15.3-8c0.7-2,1.7-5,0.7-7c-2-5-3-10-4-15c-3-9,3-26,15-21c4,2,9,4,9,7c0,19,6,36,18,51c2,3,0,7,1.7,10.1
	c0.1,2,0.1,4.1,0,6.2c-0.6,14.7-4.7,30.7-4.7,30.7c21-2,38-27,38-27c28,28,59.9,19.1,59.9,19.1s9-31-19-59
	C413.4,373,438.4,356,440.4,335z M257.5,310.9L257.5,310.9c16-29-1-56-1-56s27.9,17.1,56.9,1.1c0,0,0,0,0,0v0c0,0,0,0,0,0
	c-16,29,1,56,1,56S286.5,294.9,257.5,310.9z"/>
<path class="st2" d="M314.9,312.1c0,0-27.9-17.1-56.9-1.1l0,0c16-29-1-56-1-56s27.9,17.1,56.9,1.1v0
	C297.9,285.1,314.9,312.1,314.9,312.1z"/>
<polygon class="st0" points="0,113 113,0 0,0 "/>
<polygon class="st0" points="453.9,0 565.9,113 565.9,0 "/>
<polygon class="st0" points="565.9,452.9 565.9,565.9 452.9,565.9 "/>
<polygon class="st0" points="113,565.9 0,565.9 0,452.9 "/>
</svg>
