<?xml version="1.0" encoding="utf-8"?>
<!-- Generator: Adobe Illustrator 20.0.0, SVG Export Plug-In . SVG Version: 6.00 Build 0)  -->
<svg version="1.1" id="Layer_1" xmlns="http://www.w3.org/2000/svg" xmlns:xlink="http://www.w3.org/1999/xlink" x="0px" y="0px"
	 viewBox="0 0 565.2 565.8" style="enable-background:new 0 0 565.2 565.8;" xml:space="preserve">
<style type="text/css">
	.st0{fill:#FFFFFF;stroke:#000000;stroke-miterlimit:10;}
	.st1{fill:#FFFFFF;stroke:#000000;stroke-width:0.75;}
</style>
<path class="st0" d="M0,0v565.8h565.2V0H0z M447.4,394v54.4v0.3H393c0,0,0.7,112.1-109.9,109.2h-0.3
	c-111.2,2.9-110.5-109.2-110.5-109.2h-54.8l0.3-0.3V394c0,0-112.1,0.7-109.2-109.9v-0.3C5.7,173.3,117.8,173.9,117.8,173.9v-54.4
	h0.7h54.4c0,0-0.7-112.1,109.9-109.2h0.3C393.6,7.4,393,119.5,393,119.5h54.4l0,0v54.4c0,0,112.1-0.7,109.2,109.9v0.3
	C559.5,394.7,447.4,394,447.4,394z"/>
<path class="st1" d="M117.8,119.5v54.4c0,0-112.1-0.7-109.2,109.9v0.3C5.7,394.7,117.8,394,117.8,394v54.4l-0.3,0.3h54.8
	c0,0-0.7,112.1,110.5,109.2h0.3c110.5,3,109.9-109.1,109.9-109.1h54.4v-0.3V394c0,0,112.1,0.7,109.2-109.9v-0.3
	c2.9-110.5-109.2-109.9-109.2-109.9v-54.4l0,0H393c0,0,0.7-112.1-109.9-109.2h-0.3C172.2,7.4,172.9,119.5,172.9,119.5h-54.4"/>
<path class="st0" d="M283.2,351.8c45.7,83.5,97.7,98.6,97.7,98.6c21.6-35.6-39.3-136.5-39.3-136.5c72.6,13.9,143.6-31.2,143.6-31.2
	l-1-1c0,0-71.1-44.6-143.6-30.9c0,0,60.9-100,39.3-135.4c0,0-52,14.9-97.7,97.7L282,215c-45.7-82.8-97.7-97.7-97.7-97.7
	c-21.6,35.3,39.3,135.4,39.3,135.4C151.1,238.9,80,283.6,80,283.6l1-1.5c0,0,71.1,44.6,143.6,30.9c0,0-60.9,100-39.3,135.4
	c0,0,52-14.9,97.7-97.7"/>
</svg>
