<?xml version="1.0" encoding="utf-8"?>
<!-- Generator: Adobe Illustrator 20.0.0, SVG Export Plug-In . SVG Version: 6.00 Build 0)  -->
<svg version="1.1" id="Layer_1" xmlns="http://www.w3.org/2000/svg" xmlns:xlink="http://www.w3.org/1999/xlink" x="0px" y="0px"
	 viewBox="0 0 566.9 566.9" style="enable-background:new 0 0 566.9 566.9;" xml:space="preserve">
<style type="text/css">
	.st0{fill:none;stroke:#040006;stroke-miterlimit:10;}
	.st1{fill:none;stroke:#000000;stroke-width:0.7087;stroke-miterlimit:10;}
	.st2{fill:none;stroke:#000000;stroke-width:0.6975;stroke-miterlimit:10;}
</style>
<path class="st0" d="M566.9,0.4v88.7L461.3,0.4H90.7l191,160.5l0.5-0.6l97.4-84.1h0l95.9,80.6l0,0L282.3,326.4l0,0L0,89.3v478.2
	h567.2V244.2L567,412.2L383.2,566.5l-200.2,0.4l384.2-322.7V0.4H566.9z M193.8,414.5L97.8,495h0L0.4,410.9V244.7L193.8,414.5
	L193.8,414.5z"/>
<polygon class="st1" points="90.3,0.5 281.7,161.3 282.3,160.7 379.7,76.5 379.7,76.5 475.6,157.1 475.6,157.1 282.3,326.8 
	282.3,326.8 0,89.8 0,0.8 "/>
<polygon class="st2" points="383.2,567 567,412.6 567.2,244.7 182.9,567.4 "/>
<polygon class="st1" points="461.3,0.8 566.9,89.6 566.9,0.8 "/>
<polygon class="st1" points="0.4,245.2 193.8,414.9 193.8,414.9 97.8,495.5 97.8,495.5 0.4,411.4 "/>
</svg>
