<?xml version="1.0" encoding="utf-8"?>
<!-- Generator: Adobe Illustrator 20.1.0, SVG Export Plug-In . SVG Version: 6.00 Build 0)  -->
<svg version="1.1" id="Layer_1" xmlns="http://www.w3.org/2000/svg" xmlns:xlink="http://www.w3.org/1999/xlink" x="0px" y="0px"
	 viewBox="0 0 571.5 571.5" style="enable-background:new 0 0 571.5 571.5;" xml:space="preserve">
<style type="text/css">
	.st0{fill:none;stroke:#000000;stroke-width:0.7087;stroke-miterlimit:10;}
	.st1{fill:#FFFFFF;stroke:#000000;stroke-width:0.7087;stroke-miterlimit:10;}
</style>
<polyline class="st0" points="0.4,414.1 0.4,414.1 0.4,246.5 0.4,246.5 "/>
<polygon class="st1" points="91,0 284.6,161.6 382.8,76.8 479.5,158 284.6,329.2 0,90.1 0,0 "/>
<polygon class="st1" points="465.2,0.4 571.8,89.9 571.8,0 "/>
<polygon class="st1" points="0.4,246.5 195.4,417.7 98.6,499 0.4,414.1 "/>
<polygon class="st1" points="184.4,571.5 571.8,246 571.6,415.4 386.3,571.1 "/>
<polygon class="st1" points="-0.1,89.9 -0.1,246.3 195.3,417.5 98.6,498.8 0.3,413.8 0.3,571.3 184.4,571.3 571.7,245.8 571.7,89.7 
	465.1,0.2 90.9,0.2 284.5,161.4 382.7,76.6 479.4,157.8 284.5,329 "/>
<polygon class="st1" points="571.6,415.4 571.5,571.5 386.3,571.1 "/>
</svg>
