<?xml version="1.0" encoding="utf-8"?>
<!-- Generator: Adobe Illustrator 20.0.0, SVG Export Plug-In . SVG Version: 6.00 Build 0)  -->
<svg version="1.1" id="Layer_1" xmlns="http://www.w3.org/2000/svg" xmlns:xlink="http://www.w3.org/1999/xlink" x="0px" y="0px"
	 viewBox="0 0 567 566.6" style="enable-background:new 0 0 567 566.6;" xml:space="preserve">
<style type="text/css">
	.st0{fill:none;stroke:#000000;stroke-width:0.7087;stroke-miterlimit:10;}
	.st1{fill:#FFFFFF;stroke:#000000;stroke-width:0.7087;stroke-miterlimit:10;}
</style>
<polyline class="st0" points="0.4,410.5 0.4,410.5 0.4,244.4 0.4,244.4 "/>
<polygon class="st1" points="90.3,0 282.3,160.2 379.7,76.1 475.6,156.6 282.3,326.4 0,89.3 0,0 "/>
<polygon class="st1" points="461.5,0.4 567.2,89.1 567.2,0 "/>
<polygon class="st1" points="0.4,244.4 193.8,414.1 97.8,494.7 0.4,410.5 "/>
<polygon class="st1" points="182.9,566.6 567.2,243.9 567,411.8 383.2,566.2 "/>
<polygon class="st1" points="-0.1,89.1 -0.1,244.2 193.7,413.9 97.8,494.5 0.3,410.3 0.3,566.4 182.9,566.4 567.1,243.7 567.1,88.9 
	461.4,0.2 90.2,0.2 282.2,160 379.6,75.9 475.5,156.4 282.2,326.2 "/>
<polygon class="st1" points="567,411.8 566.9,566.6 383.2,566.2 "/>
</svg>
